<svg width="120" height="45" viewBox="0 0 120 45" fill="none" xmlns="http://www.w3.org/2000/svg">
<path d="M11.4909 36.6686C4.77933 36.6686 0 33.3271 0 27.4782C0 21.6293 5.30814 17.1447 11.0524 15.1222C10.6138 14.2881 10.3506 13.2329 10.3506 12.0018C10.3506 5.23335 18.992 0 28.0269 0C33.7285 0 36.2297 2.46216 36.2297 5.32129C36.2297 10.3788 28.9491 13.0168 26.448 13.0168C25.9643 13.0168 25.7011 12.8862 25.7011 12.7078C25.7011 12.3987 26.0971 12.3108 26.8414 12.1802C30.4378 11.4767 35.1319 9.14518 35.1319 5.40922C35.1319 2.94706 32.721 0.879344 27.8063 0.879344C19.9118 0.879344 11.9295 5.6278 11.9295 11.8711C11.9295 12.9716 12.1927 13.8936 12.5861 14.685C14.2979 14.2027 16.0522 13.9816 17.6311 13.9816C20.4381 13.9816 22.1047 14.8609 22.1047 16.489C22.1047 17.9838 20.2626 18.8632 18.0697 18.8632C15.8768 18.8632 13.1576 18.0266 11.6213 16.0041C6.44595 17.9386 1.66412 22.0715 1.66412 27.4355C1.66412 32.7995 6.1828 35.6134 11.7516 35.6134C17.8041 35.6134 24.1648 32.184 28.7687 25.501C28.9892 25.1945 29.2073 25.0186 29.3827 25.0186C29.5582 25.0186 29.691 25.1492 29.691 25.4583C29.691 25.7673 29.1647 26.7773 28.1572 28.0536C25.5683 31.3951 19.6912 36.6712 11.4909 36.6712V36.6686ZM13.1576 15.5192C14.4282 17.1472 16.5785 17.9361 18.5534 17.9361C19.9118 17.9361 20.9644 17.4085 20.9644 16.4412C20.9644 15.3408 19.8667 14.8132 17.8066 14.8132C16.358 14.8132 14.7365 15.077 13.1576 15.5167V15.5192Z" fill="#05191E"/>
<path d="M30.8764 33.3724C29.0344 33.3724 27.7186 32.2719 27.7186 29.8977C27.7186 27.0838 29.2524 23.8729 34.1219 16.7955C39.0341 9.76072 43.1568 4.39672 44.2545 4.39672C44.3422 4.39672 44.43 4.44194 44.43 4.57259C44.43 5.01226 43.7282 6.33128 42.0616 8.88137C38.2021 14.9061 33.3776 21.5439 30.2198 25.413C28.904 27.9204 28.904 28.9304 28.904 29.8098C28.904 31.7016 29.8263 32.3172 31.097 32.3172C33.5982 32.2744 36.5354 29.767 39.5178 25.3251C39.6506 25.104 39.8261 25.0161 39.9564 25.0161C40.2195 25.0161 40.395 25.2372 40.395 25.4985C40.395 26.1567 35.6131 33.3699 30.8764 33.3699V33.3724Z" fill="#05191E"/>
<path d="M46.0515 33.9879C41.7082 33.9879 38.9013 31.6137 38.9013 28.2269C38.9013 23.1267 44.9112 17.6296 50.5677 17.6296C52.7606 17.6296 53.9009 18.818 53.9009 20.4887C53.9009 24.182 49.515 27.3928 44.5578 27.3928C43.0666 27.3928 41.618 27.2169 40.5228 26.5562C40.3925 27.1265 40.3022 27.6993 40.3022 28.3149C40.3022 30.9529 42.5403 33.0206 46.2244 33.0206C51.0488 33.0206 53.9435 30.2494 57.2768 25.3251C57.4071 25.104 57.585 25.0161 57.7153 25.0161C58.0236 25.0161 58.1539 25.2372 58.1539 25.4557C58.1539 25.7648 57.4973 26.6868 56.6201 27.9179C54.7781 30.468 51.5751 33.9854 46.049 33.9854L46.0515 33.9879ZM40.7433 25.8527C41.8411 26.3351 42.8937 26.511 44.1217 26.511C48.5527 26.511 52.6754 23.6971 52.6754 20.3983C52.6754 19.122 51.8433 18.4637 50.3947 18.4637C46.8409 18.4637 42.1493 21.7173 40.7458 25.8502L40.7433 25.8527Z" fill="#05191E"/>
<path d="M68.7276 33.3724C66.665 33.3724 65.1312 32.184 65.1312 29.8098C65.1312 26.3351 68.5973 21.7625 70.3942 19.2576C68.1136 20.4887 65.8755 23.1267 63.8154 25.5889C60.6125 29.4153 57.8933 33.3724 55.8758 33.3724C54.9109 33.3724 54.2969 32.7568 54.2969 31.7016C54.2969 28.9304 57.4973 24.2272 61.0511 20.0943C61.3594 19.7425 61.6651 19.6119 61.9283 19.6119C62.1914 19.6119 62.3669 19.7878 62.3669 20.0516C62.3669 20.2726 62.2791 20.5339 61.9734 20.8882C58.1138 25.2849 55.57 29.5937 55.57 31.7493C55.57 32.189 55.7455 32.4076 56.1414 32.4076C57.2392 32.4076 60.0887 28.6691 63.1162 25.0211C66.056 21.5037 69.2138 18.1622 70.9681 18.1622C71.537 18.1622 71.9756 18.514 71.9756 18.9109C71.9756 19.0868 71.8879 19.3079 71.7551 19.4837C70.2213 21.5515 66.4921 26.3426 66.4921 29.8173C66.4921 31.4881 67.5021 32.4553 68.8178 32.4553C71.3616 32.4553 74.3891 29.7721 77.3715 25.3326C77.5018 25.1116 77.6797 25.0236 77.8101 25.0236C78.0732 25.0236 78.2487 25.2447 78.2487 25.506C78.2487 26.1643 73.4668 33.3774 68.7301 33.3774L68.7276 33.3724Z" fill="#05191E"/>
<path d="M87.4113 29.1942C85.2184 31.7895 82.6295 33.812 80.4366 33.812C77.8477 33.812 76.4893 31.9227 76.4893 29.1063C76.4893 23.785 82.7623 17.6296 88.0254 17.6296C90.4363 17.6296 91.6669 18.5089 92.7195 19.6094C93.6844 18.421 94.5189 17.6296 94.9124 17.6296C95.2633 17.6296 95.3059 17.8055 95.3059 18.1572C95.3059 19.3456 91.7972 24.3126 89.1657 27.2144C88.6394 28.3149 88.5517 29.1942 88.5517 30.0736C88.5517 31.6564 89.3837 32.3599 90.6143 32.3599C93.2458 32.3599 96.0978 29.8098 99.1228 25.3251C99.2531 25.104 99.4286 25.0161 99.5614 25.0161C99.8246 25.0161 100 25.2372 100 25.4985C100 26.1567 95.2182 33.3698 90.4814 33.3698C88.8148 33.3698 87.3662 32.2694 87.3662 29.8952C87.3662 29.6741 87.4088 29.4555 87.4088 29.1917L87.4113 29.1942ZM80.6571 32.8875C83.0681 32.8875 85.7898 30.0283 88.1582 26.8627C89.0354 24.9281 90.3962 22.6846 91.712 20.8832C91.316 19.6069 90.1782 18.3758 88.0705 18.3758C83.3338 18.3758 77.8076 24.6191 77.8076 29.0611C77.8076 31.4805 78.7299 32.8875 80.6596 32.8875H80.6571Z" fill="#05191E"/>
</svg>
