<svg width="153" height="74" viewBox="0 0 153 74" fill="none" xmlns="http://www.w3.org/2000/svg">
<path d="M17.9647 55.7377C7.76281 55.7377 0.498047 50.6585 0.498047 41.768C0.498047 32.8774 8.56662 26.0606 17.298 22.9863C16.6314 21.7184 16.2314 20.1145 16.2314 18.2432C16.2314 7.9549 29.3666 0 43.0999 0C51.7666 0 55.5685 3.74258 55.5685 8.08856C55.5685 15.7761 44.5019 19.786 40.6999 19.786C39.9647 19.786 39.5647 19.5874 39.5647 19.3163C39.5647 18.8466 40.1666 18.7129 41.298 18.5143C46.7647 17.445 53.8999 13.901 53.8999 8.22222C53.8999 4.47964 50.2352 1.33664 42.7647 1.33664C30.7647 1.33664 18.6314 8.55447 18.6314 18.0446C18.6314 19.7173 19.0314 21.1189 19.6295 22.3218C22.2314 21.5886 24.898 21.2525 27.298 21.2525C31.5647 21.2525 34.098 22.5891 34.098 25.0638C34.098 27.3361 31.298 28.6728 27.9647 28.6728C24.6314 28.6728 20.498 27.401 18.1628 24.3268C10.2961 27.2674 3.02757 33.5496 3.02757 41.703C3.02757 49.8565 9.89614 54.1338 18.3609 54.1338C27.5609 54.1338 37.2295 48.9209 44.2276 38.7624C44.5628 38.2965 44.8942 38.0292 45.1609 38.0292C45.4276 38.0292 45.6295 38.2278 45.6295 38.6975C45.6295 39.1673 44.8295 40.7025 43.298 42.6425C39.3628 47.7217 30.4295 55.7416 17.9647 55.7416V55.7377ZM20.498 23.5897C22.4295 26.0644 25.698 27.2636 28.6999 27.2636C30.7647 27.2636 32.3647 26.4616 32.3647 24.9913C32.3647 23.3186 30.6961 22.5166 27.5647 22.5166C25.3628 22.5166 22.898 22.9176 20.498 23.5859V23.5897Z" fill="#010A0D"/>
<path d="M47.4314 50.7273C44.6314 50.7273 42.6314 49.0546 42.6314 45.4456C42.6314 41.1684 44.9628 36.2878 52.3647 25.5298C59.8314 14.8367 66.098 6.68318 67.7666 6.68318C67.8999 6.68318 68.0333 6.75192 68.0333 6.95051C68.0333 7.61883 66.9666 9.62378 64.4333 13.5C58.5666 22.6579 51.2333 32.7476 46.4333 38.6288C44.4333 42.4401 44.4333 43.9753 44.4333 45.312C44.4333 48.1876 45.8352 49.1233 47.7666 49.1233C51.5685 49.0584 56.0333 45.247 60.5666 38.4951C60.7685 38.1591 61.0352 38.0254 61.2333 38.0254C61.6333 38.0254 61.8999 38.3615 61.8999 38.7586C61.8999 39.7592 54.6314 50.7234 47.4314 50.7234V50.7273Z" fill="#010A0D"/>
<path d="M70.498 51.6629C63.8961 51.6629 59.6295 48.054 59.6295 42.906C59.6295 35.1535 68.7647 26.7976 77.3628 26.7976C80.6961 26.7976 82.4295 28.604 82.4295 31.1436C82.4295 36.7575 75.7628 41.6381 68.2276 41.6381C65.9609 41.6381 63.759 41.3708 62.0942 40.3664C61.8961 41.2333 61.759 42.104 61.759 43.0397C61.759 47.0496 65.1609 50.1926 70.7609 50.1926C78.0942 50.1926 82.4942 45.9803 87.5609 38.4951C87.759 38.1591 88.0295 38.0254 88.2276 38.0254C88.6961 38.0254 88.8942 38.3615 88.8942 38.6937C88.8942 39.1634 87.8961 40.565 86.5628 42.4363C83.7628 46.3125 78.8942 51.6591 70.4942 51.6591L70.498 51.6629ZM62.4295 39.2971C64.0981 40.0303 65.6981 40.2977 67.5647 40.2977C74.3 40.2977 80.5666 36.0204 80.5666 31.0061C80.5666 29.0661 79.3019 28.0655 77.1 28.0655C71.698 28.0655 64.5666 33.0111 62.4333 39.2933L62.4295 39.2971Z" fill="#010A0D"/>
<path d="M104.967 50.7273C101.831 50.7273 99.4999 48.9209 99.4999 45.312C99.4999 40.0303 104.769 33.0798 107.5 29.2723C104.033 31.1436 100.631 35.1535 97.4999 38.8961C92.6314 44.7124 88.498 50.7273 85.4314 50.7273C83.9647 50.7273 83.0314 49.7916 83.0314 48.1876C83.0314 43.9753 87.8961 36.8262 93.298 30.544C93.7666 30.0094 94.2314 29.8108 94.6314 29.8108C95.0314 29.8108 95.298 30.0781 95.298 30.4791C95.298 30.8152 95.1647 31.2124 94.6999 31.7508C88.8333 38.434 84.9666 44.9835 84.9666 48.2602C84.9666 48.9285 85.2333 49.2608 85.8352 49.2608C87.5038 49.2608 91.8352 43.5782 96.4371 38.033C100.906 32.6865 105.706 27.6073 108.372 27.6073C109.237 27.6073 109.904 28.1419 109.904 28.7453C109.904 29.0126 109.77 29.3487 109.569 29.616C107.237 32.759 101.569 40.0418 101.569 45.3234C101.569 47.863 103.104 49.3333 105.104 49.3333C108.97 49.3333 113.572 45.2547 118.106 38.5066C118.304 38.1705 118.574 38.0368 118.772 38.0368C119.172 38.0368 119.439 38.3729 119.439 38.7701C119.439 39.7707 112.17 50.7349 104.97 50.7349L104.967 50.7273Z" fill="#010A0D"/>
<path d="M133.367 44.3763C130.033 48.3213 126.098 51.3956 122.765 51.3956C118.829 51.3956 116.765 48.5237 116.765 44.2427C116.765 36.1541 126.3 26.7976 134.3 26.7976C137.965 26.7976 139.835 28.1343 141.435 29.807C142.902 28.0006 144.17 26.7976 144.769 26.7976C145.302 26.7976 145.367 27.065 145.367 27.5996C145.367 29.406 140.033 36.9561 136.033 41.367C135.233 43.0397 135.1 44.3763 135.1 45.713C135.1 48.1189 136.365 49.1882 138.235 49.1882C142.235 49.1882 146.57 45.312 151.169 38.4951C151.367 38.1591 151.633 38.0254 151.835 38.0254C152.235 38.0254 152.502 38.3615 152.502 38.7586C152.502 39.7592 145.233 50.7234 138.033 50.7234C135.5 50.7234 133.298 49.0507 133.298 45.4418C133.298 45.1057 133.363 44.7735 133.363 44.3725L133.367 44.3763ZM123.1 49.9902C126.765 49.9902 130.902 45.6442 134.502 40.8323C135.835 37.8917 137.904 34.4814 139.904 31.7432C139.302 29.8032 137.572 27.9319 134.369 27.9319C127.169 27.9319 118.769 37.422 118.769 44.1739C118.769 47.8516 120.17 49.9902 123.104 49.9902H123.1Z" fill="#010A0D"/>
<path d="M1.41992 61.9896H6.7304V62.8985H2.35326V65.82H6.7304V66.7289H2.35326V70.4028H6.7304V71.3117H1.41992V61.9896Z" fill="#010A0D"/>
<path d="M8.50564 64.4185L10.8104 69.4289L13.0885 64.4185H14.0333L10.8866 71.3117H10.7304L7.55707 64.4185H8.50564Z" fill="#010A0D"/>
<path d="M15.9647 67.9395C16.0028 69.5244 17.0771 70.6777 18.5552 70.6777C20.0333 70.6777 20.6809 69.8605 21.1837 69.0279L21.9228 69.4175C21.2218 70.7923 20.1475 71.4835 18.6466 71.4835C16.3685 71.4835 15.058 69.7306 15.058 67.8861C15.058 66.0415 16.4447 64.239 18.5933 64.239C20.5475 64.239 22.1285 65.6558 22.1552 67.9395H15.9647ZM21.1837 67.1605C20.8218 65.7322 19.7971 65.0944 18.6047 65.0944C17.4123 65.0944 16.4561 65.7551 16.0523 67.1605H21.1837Z" fill="#010A0D"/>
<path d="M24.3837 65.419C24.9018 64.6667 25.458 64.239 26.159 64.239C26.559 64.239 26.7685 64.3688 26.9475 64.4719L26.4828 65.2243C26.3799 65.1708 26.2123 65.0944 26.018 65.0944C25.3704 65.0944 24.7875 65.652 24.5285 66.5991C24.4104 67.0421 24.3875 67.7562 24.3875 68.6881V71.3117H23.4542V64.4184H24.3875V65.419H24.3837Z" fill="#010A0D"/>
<path d="M26.9628 64.4185H27.8961L30.2656 69.7268L32.559 64.4185H33.5037L29.3971 73.8322H28.4637L29.7856 70.7923L26.9628 64.4185Z" fill="#010A0D"/>
<path d="M35.4314 61.8483H36.3114V64.4185H37.7247V65.1975H36.3114V71.3117H35.4314V65.1975H34.2123V64.4185H35.4314V61.8483Z" fill="#010A0D"/>
<path d="M39.0352 61.7566H39.9152V65.652C40.6275 64.7163 41.4694 64.2351 42.4942 64.2351C43.9837 64.2351 45.0313 65.2854 45.0313 67.3514V71.3117H44.1513V67.5576C44.1513 65.9346 43.6599 65.0371 42.3266 65.0371C41.5875 65.0371 40.978 65.3617 40.5133 65.9728C40.0066 66.6334 39.919 67.3094 39.919 68.4131V71.3079H39.039V61.7528L39.0352 61.7566Z" fill="#010A0D"/>
<path d="M47.9837 62.3027C47.9837 62.7037 47.6485 63.0436 47.2447 63.0436C46.8409 63.0436 46.5209 62.7076 46.5209 62.3027C46.5209 61.8979 46.8561 61.5771 47.2447 61.5771C47.6333 61.5771 47.9837 61.9018 47.9837 62.3027ZM46.818 64.4185H47.698V71.3117H46.818V64.4185Z" fill="#010A0D"/>
<path d="M50.4066 65.652C51.119 64.7163 51.9723 64.2351 52.9856 64.2351C54.4866 64.2351 55.538 65.2739 55.538 67.4431V71.3117H54.658V67.5576C54.658 65.9346 54.1513 65.0371 52.818 65.0371C52.079 65.0371 51.4695 65.3617 51.0047 65.9728C50.4866 66.6487 50.4104 67.3247 50.4104 68.4131V71.3079H49.5304V64.4146H50.4104V65.6482L50.4066 65.652Z" fill="#010A0D"/>
<path d="M64.2504 69.9101C64.2504 71.0405 64.1856 71.9762 63.6294 72.74C63.0466 73.5305 62.0218 74.0002 60.7152 74.0002C58.7342 74.0002 57.7742 73.1944 57.1685 71.8578H58.1285C58.6466 72.7667 59.4504 73.1944 60.6656 73.1944C61.8047 73.1944 62.6466 72.7782 63.0618 72.0258C63.3209 71.5446 63.359 71.052 63.359 70.5212V70.0018C62.6733 70.8725 61.6752 71.3117 60.6009 71.3117C58.6961 71.3117 57.0771 69.8567 57.0771 67.8173C57.0771 65.778 58.7723 64.2351 60.6009 64.2351C61.8199 64.2351 62.6352 64.7545 63.359 65.61V64.4146H64.2542V69.9063L64.2504 69.9101ZM57.9837 67.8708C57.9837 69.2456 58.9552 70.4562 60.7685 70.4562C62.2694 70.4562 63.3971 69.4175 63.3971 67.8059C63.3971 66.1943 62.1666 65.0944 60.7418 65.0944C59.199 65.0944 57.9837 66.2745 57.9837 67.8708Z" fill="#010A0D"/>
<path d="M69.7323 61.7566H70.6123V65.652C71.3247 64.7163 72.1666 64.2351 73.1914 64.2351C74.6809 64.2351 75.7285 65.2854 75.7285 67.3514V71.3117H74.8485V67.5576C74.8485 65.9346 74.3571 65.0371 73.0237 65.0371C72.2847 65.0371 71.6752 65.3617 71.2104 65.9728C70.7037 66.6334 70.6161 67.3094 70.6161 68.4131V71.3079H69.7361V61.7528L69.7323 61.7566Z" fill="#010A0D"/>
<path d="M83.6142 64.4184H84.4828V71.3117H83.6142V70.1316C82.8637 71.0405 81.919 71.4835 80.8409 71.4835C78.8333 71.4835 77.3171 69.807 77.3171 67.8479C77.3171 65.8888 78.8713 64.239 80.8675 64.239C81.9799 64.239 82.9285 64.7201 83.6142 65.6787V64.4184ZM78.2275 67.8708C78.2275 69.364 79.3933 70.6739 80.9361 70.6739C82.3494 70.6739 83.6828 69.6084 83.6828 67.8975C83.6828 66.3012 82.4904 65.0944 80.9514 65.0944C79.4123 65.0944 78.2314 66.3929 78.2314 67.8708H78.2275Z" fill="#010A0D"/>
<path d="M86.3875 69.8719C86.8294 70.3646 87.3056 70.6395 87.8237 70.6395C88.498 70.6395 89.0923 70.1469 89.0923 69.4977C89.0923 69.0967 88.8599 68.7186 88.5209 68.5353C86.9399 67.6531 86.1361 67.275 86.1361 66.0682C86.1361 64.976 86.978 64.239 88.0256 64.239C88.7761 64.239 89.3475 64.6018 89.9304 65.1746L89.359 65.7589C88.9437 65.3579 88.5285 65.0982 87.9723 65.0982C87.4161 65.0982 86.9361 65.4992 86.9361 66.0186C86.9361 66.3699 87.1571 66.7595 87.4656 66.939C89.0466 67.8593 89.9266 68.2107 89.9266 69.4595C89.9266 70.5364 89.0961 71.4988 87.8542 71.4988C87.0885 71.4988 86.3114 71.1475 85.8199 70.5135L86.3761 69.8757L86.3875 69.8719Z" fill="#010A0D"/>
<path d="M101.073 64.4184H101.942V71.3117H101.073V70.1316C100.323 71.0405 99.378 71.4835 98.3037 71.4835C96.2961 71.4835 94.7799 69.807 94.7799 67.8479C94.7799 65.8888 96.3342 64.239 98.3266 64.239C99.439 64.239 100.388 64.7201 101.073 65.6787V64.4184ZM95.6866 67.8708C95.6866 69.364 96.8523 70.6739 98.3952 70.6739C99.8085 70.6739 101.142 69.6084 101.142 67.8975C101.142 66.3012 99.9494 65.0944 98.4104 65.0944C96.8714 65.0944 95.6904 66.3929 95.6904 67.8708H95.6866Z" fill="#010A0D"/>
<path d="M108.109 65.419C108.628 64.6667 109.184 64.239 109.885 64.239C110.285 64.239 110.494 64.3688 110.673 64.4719L110.208 65.2243C110.106 65.1708 109.938 65.0944 109.744 65.0944C109.096 65.0944 108.513 65.652 108.254 66.5991C108.136 67.0421 108.113 67.7562 108.113 68.6881V71.3117H107.18V64.4184H108.113V65.419H108.109Z" fill="#010A0D"/>
<path d="M111.957 67.9395C111.995 69.5244 113.069 70.6777 114.548 70.6777C116.026 70.6777 116.673 69.8605 117.176 69.0279L117.915 69.4175C117.214 70.7923 116.14 71.4835 114.639 71.4835C112.361 71.4835 111.05 69.7306 111.05 67.8861C111.05 66.0415 112.437 64.239 114.586 64.239C116.54 64.239 118.121 65.6558 118.148 67.9395H111.957ZM117.176 67.1605C116.814 65.7322 115.789 65.0944 114.597 65.0944C113.405 65.0944 112.448 65.7551 112.045 67.1605H117.176Z" fill="#010A0D"/>
<path d="M125.774 64.4184H126.643V71.3117H125.774V70.1316C125.024 71.0405 124.079 71.4835 123.005 71.4835C120.997 71.4835 119.481 69.807 119.481 67.8479C119.481 65.8888 121.035 64.239 123.028 64.239C124.14 64.239 125.088 64.7201 125.774 65.6787V64.4184ZM120.388 67.8708C120.388 69.364 121.553 70.6739 123.096 70.6739C124.509 70.6739 125.843 69.6084 125.843 67.8975C125.843 66.3012 124.65 65.0944 123.111 65.0944C121.572 65.0944 120.391 66.3929 120.391 67.8708H120.388Z" fill="#010A0D"/>
<path d="M128.548 69.8719C128.989 70.3646 129.466 70.6395 129.984 70.6395C130.658 70.6395 131.252 70.1469 131.252 69.4977C131.252 69.0967 131.02 68.7186 130.681 68.5353C129.1 67.6531 128.296 67.275 128.296 66.0682C128.296 64.976 129.138 64.239 130.186 64.239C130.936 64.239 131.508 64.6018 132.09 65.1746L131.519 65.7589C131.104 65.3579 130.688 65.0982 130.132 65.0982C129.576 65.0982 129.096 65.4992 129.096 66.0186C129.096 66.3699 129.317 66.7595 129.626 66.939C131.207 67.8593 132.087 68.2107 132.087 69.4595C132.087 70.5364 131.256 71.4988 130.014 71.4988C129.248 71.4988 128.471 71.1475 127.98 70.5135L128.536 69.8757L128.548 69.8719Z" fill="#010A0D"/>
<path d="M140.513 67.8861C140.513 69.8452 138.997 71.495 136.925 71.495C134.852 71.495 133.336 69.8452 133.336 67.8861C133.336 65.9269 134.864 64.239 136.925 64.239C138.986 64.239 140.513 65.9155 140.513 67.8861ZM134.247 67.8975C134.247 69.4022 135.374 70.6357 136.928 70.6357C138.483 70.6357 139.61 69.4022 139.61 67.8975C139.61 66.3929 138.391 65.0944 136.928 65.0944C135.466 65.0944 134.247 66.3661 134.247 67.8975Z" fill="#010A0D"/>
<path d="M143.028 65.652C143.74 64.7163 144.593 64.2351 145.607 64.2351C147.108 64.2351 148.159 65.2739 148.159 67.4431V71.3117H147.279V67.5576C147.279 65.9346 146.772 65.0371 145.439 65.0371C144.7 65.0371 144.09 65.3617 143.626 65.9728C143.108 66.6487 143.031 67.3247 143.031 68.4131V71.3079H142.151V64.4146H143.031V65.6482L143.028 65.652Z" fill="#010A0D"/>
</svg>
