<svg width="40" height="41" viewBox="0 0 40 41" fill="none" xmlns="http://www.w3.org/2000/svg">
<path d="M16.3429 28.394C16.7331 28.7865 17.3679 28.7875 17.7592 28.3961L30.0499 16.1054C30.683 15.4723 30.6774 14.4441 30.0374 13.818C29.4072 13.2015 28.3983 13.2071 27.7749 13.8304L17.05 24.5554L12.1767 19.6821C11.5544 19.0598 10.5456 19.0598 9.9233 19.6821C9.30237 20.303 9.30085 21.3093 9.9199 21.9321L16.3429 28.394ZM20 40.0054C17.2667 40.0054 14.6833 39.4804 12.25 38.4304C9.81667 37.3804 7.69167 35.947 5.875 34.1304C4.05833 32.3137 2.625 30.1887 1.575 27.7554C0.525 25.322 0 22.7387 0 20.0054C0 17.2387 0.525 14.6387 1.575 12.2054C2.625 9.77204 4.05833 7.65537 5.875 5.85537C7.69167 4.05537 9.81667 2.63037 12.25 1.58037C14.6833 0.530371 17.2667 0.00537109 20 0.00537109C22.7667 0.00537109 25.3667 0.530371 27.8 1.58037C30.2333 2.63037 32.35 4.05537 34.15 5.85537C35.95 7.65537 37.375 9.77204 38.425 12.2054C39.475 14.6387 40 17.2387 40 20.0054C40 22.7387 39.475 25.322 38.425 27.7554C37.375 30.1887 35.95 32.3137 34.15 34.1304C32.35 35.947 30.2333 37.3804 27.8 38.4304C25.3667 39.4804 22.7667 40.0054 20 40.0054ZM20 37.0054C24.7333 37.0054 28.75 35.347 32.05 32.0304C35.35 28.7137 37 24.7054 37 20.0054C37 15.272 35.35 11.2554 32.05 7.95537C28.75 4.65537 24.7333 3.00537 20 3.00537C15.3 3.00537 11.2917 4.65537 7.975 7.95537C4.65833 11.2554 3 15.272 3 20.0054C3 24.7054 4.65833 28.7137 7.975 32.0304C11.2917 35.347 15.3 37.0054 20 37.0054Z" fill="#4D2270"/>
</svg>
